<?xml version="1.0" standalone="no"?>
<!DOCTYPE svg PUBLIC "-//W3C//DTD SVG 20010904//EN"
 "http://www.w3.org/TR/2001/REC-SVG-20010904/DTD/svg10.dtd">
<svg version="1.0" xmlns="http://www.w3.org/2000/svg"
 width="512.000000pt" height="512.000000pt" viewBox="0 0 512.000000 512.000000"
 preserveAspectRatio="xMidYMid meet">

<g transform="translate(0.000000,512.000000) scale(0.100000,-0.100000)"
fill="#000000" stroke="none">
<path d="M1949 4995 c-585 -95 -1074 -477 -1302 -1015 -155 -368 -172 -801
-46 -1180 72 -217 180 -404 348 -600 l30 -35 -224 -225 c-238 -240 -252 -259
-235 -333 9 -43 23 -62 80 -113 371 -332 855 -550 1343 -605 l107 -12 0 -233
0 -233 -334 -3 c-320 -3 -336 -4 -362 -24 -51 -38 -69 -71 -69 -128 1 -60 27
-106 78 -134 30 -16 92 -17 844 -17 808 0 812 0 840 21 15 11 38 36 51 54 46
68 15 172 -63 210 -39 19 -62 20 -363 20 l-322 0 0 234 0 234 68 7 c754 72
1413 467 1836 1100 83 124 213 385 261 525 97 280 137 520 137 810 0 286 -38
524 -127 780 -52 151 -180 405 -273 545 -95 142 -233 310 -281 342 -37 25
-107 31 -144 12 -12 -6 -122 -110 -244 -232 l-221 -220 -64 57 c-188 171 -481
316 -763 376 -130 28 -455 37 -586 15z m535 -310 c279 -63 527 -203 718 -404
227 -239 354 -527 383 -873 l7 -76 -394 -4 c-339 -4 -401 -7 -448 -22 -285
-91 -442 -361 -375 -645 43 -180 189 -331 374 -385 38 -11 95 -16 183 -16 70
0 128 -4 128 -9 0 -15 -126 -100 -224 -152 -196 -103 -402 -152 -636 -152
-284 1 -529 74 -763 229 -108 72 -283 237 -349 330 l-36 51 92 6 c103 7 173
26 264 70 77 37 177 127 228 204 51 76 93 201 100 299 12 146 63 194 210 194
319 1 556 229 556 535 0 226 -135 421 -351 504 -66 25 -69 25 -441 31 l-374 5
36 30 c141 116 387 222 608 261 100 18 408 11 504 -11z m1517 -209 c174 -258
291 -560 333 -865 20 -142 21 -415 1 -563 -114 -868 -750 -1585 -1598 -1803
-182 -46 -334 -65 -532 -65 -339 0 -606 61 -910 210 -102 49 -305 176 -383
237 l-22 18 159 159 160 160 58 -39 c164 -109 409 -212 593 -249 890 -181
1759 368 1978 1249 111 443 30 931 -217 1308 -28 43 -51 81 -51 85 0 4 71 78
157 164 l158 158 18 -22 c10 -13 54 -76 98 -142z m-1970 -386 c52 -15 99 -49
134 -99 28 -39 30 -49 30 -126 0 -77 -2 -87 -30 -126 -17 -24 -52 -57 -78 -73
-43 -27 -58 -30 -175 -37 -174 -10 -260 -45 -349 -142 -81 -88 -110 -157 -124
-296 -13 -119 -38 -178 -100 -236 -83 -77 -119 -88 -294 -89 l-149 -1 -23 80
c-70 240 -71 520 -3 762 26 94 87 235 139 323 l42 70 472 0 c285 0 486 -4 508
-10z m1519 -1073 c0 -1 -9 -34 -19 -73 -26 -91 -80 -218 -132 -310 l-43 -74
-258 0 c-194 0 -267 3 -291 13 -83 35 -147 130 -147 217 0 86 63 180 145 216
23 10 115 13 388 14 196 0 357 -1 357 -3z"/>
</g>
</svg>
